<?xml version="1.0" standalone="no"?>
<!DOCTYPE svg PUBLIC "-//W3C//DTD SVG 20010904//EN"
 "http://www.w3.org/TR/2001/REC-SVG-20010904/DTD/svg10.dtd">
<svg version="1.0" xmlns="http://www.w3.org/2000/svg"
 width="686.000000pt" height="686.000000pt" viewBox="0 0 686.000000 686.000000"
 preserveAspectRatio="xMidYMid meet">

<g transform="translate(0.000000,686.000000) scale(0.100000,-0.100000)"
fill="#000000" stroke="none">
<path d="M3184 6379 c-108 -41 -176 -128 -177 -228 0 -89 45 -153 119 -167 28
-5 51 2 120 35 116 56 149 55 210 -3 l46 -45 -4 -64 c-5 -83 -39 -140 -160
-267 -174 -183 -272 -332 -339 -515 -32 -87 -33 -96 -33 -235 0 -117 5 -159
22 -220 22 -77 19 -89 -20 -90 -35 0 -207 -63 -285 -105 -312 -166 -492 -458
-494 -801 0 -159 20 -246 136 -569 l58 -160 -2 -157 c-2 -149 -1 -158 18 -170
52 -32 12 -141 -109 -303 -94 -125 -158 -242 -184 -335 -69 -244 -58 -525 29
-816 80 -263 240 -520 364 -583 53 -28 172 -57 310 -78 170 -26 746 -26 911 0
249 39 331 74 416 180 211 260 335 649 321 1002 -11 275 -69 429 -251 665 -32
41 -67 92 -78 113 -24 49 -35 132 -19 151 9 10 12 62 10 178 -2 90 0 168 3
174 10 16 57 233 72 335 8 53 18 152 21 220 6 118 9 128 46 204 48 99 64 187
49 283 -12 79 -63 187 -120 256 -22 26 -40 51 -40 55 0 30 46 11 98 -40 19
-18 65 -79 104 -136 105 -154 183 -211 275 -200 93 10 182 97 183 176 0 19
-11 53 -24 76 -25 43 -45 58 -181 141 -58 35 -131 98 -265 229 -203 198 -256
235 -341 235 -76 0 -129 -59 -129 -144 0 -51 -16 -85 -44 -92 -14 -3 -67 2
-118 11 -67 12 -107 14 -143 8 -32 -6 -73 -5 -115 3 -36 7 -102 15 -147 19
l-81 7 -13 66 c-28 140 -3 299 70 447 54 110 116 182 256 302 193 165 260 250
299 382 55 189 -36 397 -226 517 -111 71 -313 96 -424 53z m259 -35 c234 -60
391 -270 358 -476 -24 -144 -88 -230 -316 -425 -175 -150 -270 -295 -316 -483
-19 -79 -18 -252 3 -325 10 -33 20 -70 24 -83 6 -22 5 -23 -47 -20 -51 3 -55
5 -76 43 -12 21 -32 79 -44 127 -28 117 -24 309 10 403 59 164 159 317 311
477 149 157 200 244 200 340 -1 76 -60 150 -143 177 -46 16 -83 8 -169 -35
-37 -19 -79 -34 -93 -34 -83 0 -123 115 -72 205 24 42 99 99 151 114 50 15
153 12 219 -5z m637 -1614 c42 -21 145 -114 250 -224 87 -91 196 -181 260
-215 104 -55 139 -82 160 -126 14 -30 19 -52 14 -67 -30 -97 -147 -137 -239
-84 -37 22 -110 104 -129 146 -21 46 -74 120 -103 143 -13 10 -20 24 -16 30 3
7 3 9 -2 5 -4 -4 -21 4 -37 17 -31 26 -76 32 -109 15 -34 -19 -25 -75 20 -129
43 -51 95 -149 106 -198 14 -66 7 -186 -13 -238 l-20 -50 -7 40 c-60 357 -201
555 -505 713 -36 18 -54 30 -40 27 43 -11 157 -18 184 -11 32 8 52 46 60 114
13 116 63 144 166 92z m-650 -186 c353 -67 616 -287 698 -584 12 -41 26 -115
33 -165 15 -113 6 -394 -16 -525 -22 -133 -85 -393 -99 -407 -12 -13 -146 -36
-316 -55 -179 -19 -795 -16 -1000 5 -145 16 -263 37 -276 50 -3 2 -13 35 -24
74 -10 38 -46 145 -80 238 -74 205 -107 330 -116 433 -13 153 30 335 113 486
42 77 161 209 238 266 113 84 292 160 411 177 36 5 43 3 48 -15 10 -29 67 -46
133 -39 65 7 87 22 78 54 -5 22 -3 23 44 23 27 0 86 -7 131 -16z m-802 -1769
c292 -37 808 -44 1120 -14 111 10 280 39 315 54 15 6 17 1 17 -48 0 -61 0 -60
-95 -82 -140 -32 -809 -55 -1070 -37 -138 9 -155 8 -155 -13 0 -23 117 -30
495 -30 379 0 552 11 710 46 103 22 115 23 115 8 0 -33 -165 -59 -503 -80
-204 -12 -597 -7 -817 11 -113 9 -314 41 -324 51 -2 2 -6 27 -7 54 -3 54 1 57
61 35 94 -34 367 -54 755 -54 388 -1 498 7 493 32 -3 15 -16 16 -108 12 -238
-11 -773 -3 -920 14 -228 27 -303 47 -286 75 4 7 20 5 47 -4 22 -8 93 -21 157
-30z m-22 -219 c317 -47 981 -47 1287 -1 158 24 141 45 134 -172 -9 -269 -43
-413 -114 -479 -36 -34 -104 -33 -138 0 l-25 25 3 238 c2 251 -4 298 -41 291
-12 -3 -16 -12 -14 -33 1 -17 5 -90 8 -162 l6 -133 -35 0 c-44 0 -74 -25 -55
-47 9 -11 9 -19 0 -33 -10 -16 -8 -22 10 -35 13 -8 32 -15 44 -15 18 0 22 -8
28 -51 5 -38 15 -59 36 -81 l29 -29 -42 -31 c-57 -42 -129 -74 -223 -100 -99
-27 -311 -30 -416 -6 -62 14 -68 14 -95 -2 -40 -25 -251 -94 -360 -118 l-92
-19 -7 46 c-8 51 10 246 27 301 9 29 7 56 -15 151 -42 188 -72 509 -48 509 5
0 53 -6 108 -14z m-156 -159 c0 -68 23 -227 50 -346 20 -91 20 -99 5 -185 -16
-96 -20 -322 -6 -345 7 -11 29 -9 132 14 128 28 311 85 368 114 29 16 40 16
100 5 109 -22 310 -18 412 7 l88 22 123 -37 c125 -37 259 -66 305 -66 l25 0
-5 123 c-3 67 -13 150 -22 185 -16 61 -16 65 3 140 30 112 42 207 42 326 0 58
4 106 8 106 5 0 16 -16 26 -36 9 -20 50 -80 91 -133 138 -180 194 -321 216
-538 37 -362 -109 -829 -336 -1074 -45 -49 -91 -72 -191 -98 -166 -42 -311
-55 -624 -55 -313 0 -455 12 -624 55 -104 26 -142 47 -197 106 -220 236 -367
709 -330 1067 22 216 77 352 218 539 41 54 81 114 90 132 22 45 33 35 33 -28z
m1556 -689 c6 -72 5 -78 -12 -78 -24 0 -213 45 -277 66 l-49 16 44 26 c23 13
59 39 78 56 23 21 47 33 70 35 19 1 53 14 75 30 l40 27 12 -50 c6 -28 15 -86
19 -128z"/>
<path d="M3362 4495 c-15 -18 -29 -25 -55 -25 -54 0 -62 -35 -11 -45 11 -2 20
-4 22 -4 1 -1 -2 -10 -8 -21 -8 -15 -6 -21 9 -30 27 -14 27 -14 41 20 12 29
15 30 72 30 51 0 59 2 56 18 -2 12 -16 19 -43 22 -30 4 -39 9 -37 21 1 9 -4
22 -12 28 -11 9 -18 7 -34 -14z"/>
<path d="M3037 4223 c-16 -15 -5 -33 31 -50 54 -25 123 -98 166 -176 67 -119
106 -132 203 -66 100 66 156 50 184 -54 11 -41 14 -281 4 -297 -3 -5 -6 -76
-7 -159 -1 -122 3 -171 22 -264 23 -111 23 -115 6 -160 -28 -75 -95 -96 -176
-54 -97 49 -113 134 -61 335 38 148 42 246 10 286 -22 28 -55 34 -83 13 -10
-8 -24 -46 -36 -102 -37 -170 -114 -275 -245 -337 -95 -44 -192 -55 -297 -35
-162 33 -285 120 -360 255 -38 68 -58 86 -74 61 -3 -6 10 -44 30 -84 26 -52
54 -90 101 -134 77 -71 134 -103 242 -132 252 -69 490 25 593 236 30 61 60
162 60 201 0 28 25 50 37 32 16 -25 5 -144 -22 -248 -15 -58 -29 -136 -31
-175 -5 -62 -2 -76 23 -125 23 -44 38 -59 82 -82 100 -52 202 -31 243 52 23
46 23 95 -3 226 -20 99 -21 125 -13 279 14 276 12 393 -9 446 -24 64 -65 100
-119 106 -37 4 -50 0 -98 -32 -81 -55 -96 -59 -121 -32 -11 12 -34 47 -50 78
-36 67 -95 130 -157 170 -47 29 -63 34 -75 22z"/>
<path d="M2595 2498 c-3 -8 6 -61 19 -118 91 -383 231 -600 372 -577 84 14
131 83 119 176 -6 51 -6 53 10 38 38 -38 105 -8 105 47 0 40 -26 66 -67 66
-38 0 -56 -20 -48 -53 4 -14 2 -28 -4 -31 -18 -12 -91 252 -91 332 0 51 -19
90 -38 78 -28 -17 -6 -171 52 -354 20 -63 36 -131 36 -151 0 -50 -30 -88 -77
-97 -115 -22 -228 170 -321 541 -20 84 -31 111 -45 113 -9 2 -19 -3 -22 -10z"/>
<path d="M3380 2270 c-11 -11 -20 -26 -20 -33 0 -8 9 -22 20 -32 29 -26 25
-62 -11 -96 -17 -16 -28 -33 -24 -39 3 -5 35 -10 71 -10 57 0 64 2 64 20 0 11
-11 27 -25 36 -29 19 -33 58 -10 88 19 26 19 51 -1 70 -21 21 -40 20 -64 -4z"/>
<path d="M4183 2104 c-6 -15 41 -119 59 -130 5 -4 15 -1 21 5 8 8 3 27 -18 70
-29 62 -51 82 -62 55z"/>
<path d="M4266 1912 c-2 -4 2 -34 10 -67 9 -36 16 -118 17 -204 1 -105 5 -145
14 -148 7 -3 17 7 23 22 20 53 7 286 -21 373 -10 30 -31 42 -43 24z"/>
<path d="M4287 1423 c-2 -5 -12 -44 -22 -88 -35 -159 -114 -354 -186 -457 -24
-33 -24 -58 -1 -58 21 0 63 67 121 191 67 142 132 366 118 404 -7 16 -23 20
-30 8z"/>
<path d="M3501 1213 c-49 -17 -129 -91 -156 -142 -32 -64 -37 -154 -13 -250 2
-9 -38 -13 -157 -17 -341 -10 -655 -58 -655 -100 0 -12 6 -15 23 -10 154 47
405 76 654 76 l163 0 40 -44 c104 -112 284 -119 411 -15 l26 21 77 -21 c91
-25 86 -25 86 -7 0 15 -78 46 -117 46 -28 0 -28 1 -1 53 13 27 23 67 26 112 7
125 -52 230 -160 286 -57 30 -183 36 -247 12z m226 -67 c-6 -15 19 -30 34 -21
5 4 6 0 3 -8 -3 -8 2 -20 11 -27 9 -7 15 -8 15 -2 0 6 -5 13 -10 15 -6 3 -5 4
2 3 7 -2 12 -12 10 -22 -2 -10 -3 -27 -3 -36 0 -41 -98 -33 -148 13 -24 22
-32 36 -29 57 3 24 8 28 53 33 28 3 54 7 59 7 4 1 6 -4 3 -12z"/>
<path d="M5218 3490 c-166 -30 -311 -110 -428 -236 -64 -69 -85 -108 -110
-199 -35 -135 -37 -263 -4 -406 5 -23 -7 -34 -165 -144 -94 -65 -169 -121
-167 -123 2 -2 89 17 193 42 104 25 196 46 205 46 9 0 33 -22 53 -49 70 -96
196 -182 328 -224 59 -18 94 -22 197 -22 108 1 136 5 205 28 98 32 208 103
298 192 111 107 151 223 151 435 0 109 -4 135 -27 205 -35 105 -74 170 -148
250 -117 125 -276 200 -444 209 -50 3 -111 1 -137 -4z m-330 -338 c3 -30 6
-32 43 -32 38 0 39 1 39 35 0 19 5 35 10 35 6 0 10 -1 10 -2 9 -70 10 -168 1
-168 -6 0 -11 12 -11 28 0 43 -13 54 -56 50 -36 -3 -39 -6 -42 -35 -6 -65 -22
-31 -22 48 0 60 3 80 13 77 6 -3 13 -19 15 -36z m522 8 c0 -11 6 -20 13 -20 7
-1 5 -6 -5 -14 -24 -18 -23 -51 2 -76 11 -11 20 -22 20 -25 0 -11 -28 -4 -40
11 -19 22 -30 105 -16 126 14 24 26 23 26 -2z m-300 -20 c39 -39 14 -120 -37
-120 -60 0 -86 78 -41 120 28 25 52 26 78 0z m442 3 c8 -10 18 -26 21 -36 7
-20 -9 -68 -26 -79 -37 -24 -97 10 -97 56 0 32 37 76 64 76 13 0 30 -8 38 -17z
m-390 -26 c-2 -22 3 -41 16 -56 25 -32 42 -20 42 30 0 21 5 39 10 39 6 0 10
-20 10 -45 0 -34 -5 -47 -20 -55 -24 -13 -54 0 -70 30 -15 27 -13 90 3 90 9 0
12 -11 9 -33z m166 27 c12 -4 22 -11 22 -16 0 -5 -10 -9 -22 -8 -58 5 -68 -14
-13 -24 39 -8 49 -18 40 -45 -11 -37 -95 -32 -95 6 0 13 3 14 12 5 15 -15 54
-16 63 -2 3 6 0 10 -7 11 -51 3 -83 25 -73 52 6 13 17 20 45 26 3 0 15 -2 28
-5z m282 -2 c0 -4 12 -8 27 -7 33 0 53 -33 53 -87 0 -53 -16 -47 -23 8 -9 82
-40 83 -53 2 -10 -58 -22 -45 -26 27 -2 47 0 65 10 65 6 0 12 -4 12 -8z m140
-110 c0 -20 -33 -56 -42 -46 -7 7 24 64 35 64 4 0 7 -8 7 -18z m-450 -130 c1
-30 3 -34 11 -19 23 40 51 14 63 -60 5 -35 3 -43 -9 -43 -11 0 -15 11 -15 39
0 65 -26 63 -39 -2 -13 -60 -29 -40 -33 40 -3 43 -3 81 -1 86 10 17 23 -7 23
-41z m163 3 c9 -8 21 -31 28 -52 11 -35 10 -38 -15 -60 -33 -28 -37 -28 -67
-4 -20 16 -22 22 -11 45 6 14 23 28 37 32 21 5 23 9 14 21 -9 9 -22 12 -43 7
-27 -6 -29 -5 -17 10 17 20 55 21 74 1z m-568 -33 c7 -42 21 -70 30 -60 4 3 9
25 12 47 7 53 21 53 25 -1 4 -56 24 -60 38 -6 14 52 19 60 30 53 11 -7 -14
-94 -33 -113 -11 -10 -20 -11 -34 -4 -11 6 -25 7 -35 1 -12 -6 -20 -3 -32 15
-20 31 -33 106 -18 106 6 0 13 -17 17 -38z m251 16 c8 -25 -17 -48 -53 -48
-26 0 -31 -21 -9 -39 14 -12 46 -5 46 10 0 5 5 9 10 9 18 0 10 -29 -11 -41
-52 -27 -100 35 -74 96 12 30 19 35 49 35 27 0 36 -5 42 -22z m398 -23 c10
-25 22 -45 26 -45 5 0 14 18 20 40 10 37 30 56 30 28 0 -32 -34 -99 -48 -96
-18 3 -47 50 -57 91 -11 44 11 31 29 -18z m184 13 c3 -25 0 -28 -37 -34 -45
-7 -49 -14 -25 -38 20 -21 31 -20 43 1 5 10 13 14 17 10 12 -12 -10 -42 -34
-45 -11 -2 -31 7 -43 19 -17 17 -20 29 -16 56 8 48 25 65 61 61 25 -2 32 -8
34 -30z m-326 -165 c0 -16 1 -34 1 -40 -1 -8 12 -13 32 -13 35 0 45 -13 45
-55 0 -33 -26 -55 -65 -55 l-34 0 0 95 c0 52 5 95 10 95 5 0 10 -12 11 -27z
m110 -20 c5 -50 -3 -153 -13 -147 -12 7 -12 174 0 174 5 0 11 -12 13 -27z
m-638 -32 c9 -10 21 -33 26 -51 8 -27 6 -35 -15 -56 -29 -29 -36 -30 -66 -5
-23 19 -23 21 -9 47 8 16 26 31 39 34 21 5 22 7 7 19 -10 8 -26 11 -43 6 -23
-5 -25 -4 -14 9 18 22 54 20 75 -3z m476 -1 c23 -23 25 -51 9 -83 -15 -28 -28
-37 -55 -37 -53 0 -78 87 -35 122 30 23 56 23 81 -2z m270 -11 c8 -14 5 -21
-12 -33 -12 -9 -32 -16 -44 -16 -17 0 -21 -5 -17 -19 7 -27 32 -35 53 -16 30
28 44 10 14 -19 -21 -22 -50 -20 -75 5 -17 17 -20 29 -15 58 10 62 71 88 96
40z m40 5 c0 -14 2 -13 16 0 20 20 53 21 61 1 5 -14 8 -14 25 2 19 17 20 17
34 -2 16 -22 20 -120 4 -110 -5 3 -10 27 -10 51 0 32 -4 44 -12 42 -11 -4 -20
-23 -34 -76 -7 -26 -24 0 -24 38 0 21 -4 41 -9 44 -14 9 -34 -22 -40 -61 -9
-52 -31 -55 -32 -4 -3 95 -2 104 11 96 6 -3 10 -13 10 -21z m-528 -1 c28 -32
31 -60 8 -83 -16 -16 -31 -21 -51 -18 -28 4 -29 3 -29 -34 0 -42 -14 -51 -24
-15 -16 60 -2 139 28 159 19 13 52 9 68 -9z m73 7 c3 5 13 10 20 10 10 0 8
-10 -10 -36 -14 -20 -25 -47 -25 -60 0 -44 -18 -25 -22 24 -5 59 0 77 17 62 9
-8 15 -8 20 0z"/>
<path d="M5047 3122 c-30 -33 -16 -82 25 -82 34 0 49 57 22 84 -20 20 -27 20
-47 -2z"/>
<path d="M5498 3128 c-17 -13 -21 -28 -19 -60 1 -23 50 -36 62 -17 13 20 11
63 -3 77 -15 15 -20 15 -40 0z"/>
<path d="M5433 2843 c-21 -8 -15 -43 6 -43 11 0 23 5 27 11 8 14 -17 38 -33
32z"/>
<path d="M5076 2875 c-6 -16 -2 -18 31 -9 13 4 20 10 17 15 -9 14 -41 10 -48
-6z"/>
<path d="M5665 2879 c-4 -6 -5 -13 -2 -16 8 -7 47 7 47 18 0 13 -37 11 -45 -2z"/>
<path d="M5410 2615 c-14 -37 -13 -45 9 -45 40 0 56 61 18 68 -11 2 -20 -6
-27 -23z"/>
<path d="M4831 2591 c-12 -21 -5 -31 20 -31 24 0 33 18 19 35 -17 20 -27 19
-39 -4z"/>
<path d="M5288 2649 c-25 -14 -23 -65 3 -79 15 -9 24 -8 35 1 19 16 18 75 -2
83 -19 7 -15 8 -36 -5z"/>
<path d="M5555 2639 c-4 -6 -5 -12 -3 -14 7 -7 48 7 48 16 0 13 -37 11 -45 -2z"/>
<path d="M5073 2638 c-24 -31 -23 -49 2 -58 33 -13 55 -3 55 24 0 39 -37 60
-57 34z"/>
</g>
</svg>
